<?xml version="1.0" encoding="utf-8"?>
<svg viewBox="0 0 500 500" xmlns="http://www.w3.org/2000/svg" xmlns:xlink="http://www.w3.org/1999/xlink">
  <defs>
    <path id="path-0" d="M 18.641 373.792 C 27.871 369.8 32.627 367.964 37.112 365.715 C 40.686 364.019 43.792 363.3 46.717 362.369 C 49.539 361.934 51.741 361.51 54.011 361.51 C 57.227 361.51 59.428 361.609 62.151 362.629 C 65.289 363.771 67.329 364.523 68.784 366.336 C 70.834 368.736 71.818 370.209 73.923 371.778 C 75.543 373.267 76.71 374.636 77.642 376.186 C 79.877 378.306 81.472 378.714 83.878 379.459 C 86.294 380.407 88.893 381.098 90.397 382.601 C 93.383 383.322 95.5 383.402 97.926 383.402 C 101.401 383.402 104.159 383.3 106.891 383.3 C 109.765 383.106 112.009 382.28 114.203 381.956 C 117.607 381.211 120.297 380.682 122.918 379.92 C 125.54 379.177 128.199 377.51 130.338 377.295 C 132.305 375.924 134.224 375.393 135.726 374.255 C 137.841 372.145 140.043 371.133 142.355 370.395 C 144.812 369.74 147.223 370.05 149.418 370.05 C 152.324 370.05 154.238 370.642 156.313 371.472 C 158.288 372.569 159.968 374.026 161.335 375.155 C 163.348 376.39 164.827 377.778 166.166 378.882 C 168.009 379.197 170.421 382.059 171.113 383.028 C 172.213 384.984 172.215 387.393 172.215 389.337 C 172.215 392.45 172.279 394.864 171.979 397.253 C 170.642 400.344 169.374 402.101 168.158 404.069 C 166.927 406.055 165.723 407.769 164.696 409.639 C 162.549 411.781 160.702 412.905 158.756 413.543 C 155.464 414.408 152.735 414.746 149.77 415.062 C 144.989 415.062 141.653 414.929 137.997 415.373 C 124.98 416.435 114.721 415.703 104.484 416.797 C 100.374 416.797 96.998 416.797 93.621 416.797 C 86.492 416.654 81.518 414.773 76.366 413.318 C 70.002 412.337 65.021 411.17 60.008 411.17 C 56.901 411.261 55.468 413.339 54.806 415.38 C 53.966 424.813 50.569 432.542 49.942 440.933 C 49.682 452.389 50.087 451.628 59.727 451.628 C 77.1 451.785 93.926 451.263 104.835 458.361 C 113.846 463.641 124.425 462.99 133.121 463.56 C 151.307 464.465 165.888 465.25 180.209 466.651 C 196.307 467.461 206.927 466.739 218.976 463.31 C 240.105 455.132 255.59 444.395 269.919 433.637 C 281.631 422.365 288.177 411.949 295.201 400.306 C 307.927 377.919 316.16 361.156 324.67 344.422 C 328.741 336.051 328.469 329.92 329.843 323.088 C 333.253 309.243 335.302 297.49 338.286 285.916 C 344.594 257.639 351.823 234.753 357.019 211.282 C 362.715 181.566 372.951 164.669 384.535 144.029 C 397.414 120.727 403.186 105.055 414.118 93.01 C 428.703 75.704 440.901 60.088 454.782 45.184 C 465.446 35.574 472.991 29.606 481.43 26.08 C 489.712 25.85 495.81 22.468 502.184 19.124 L 505.015 17.622 C 507.677 16.253 510.355 14.686 513.41 14.686" style="fill: none;"/>
    <path id="path-1" d="M 22.974 35.595 C 30.738 35.595 33.749 35.595 36.76 35.595 C 44.384 34.684 51.374 34.759 58.232 34.421 C 85.178 33.239 108.091 29.901 131.505 29.901 C 184.91 29.901 231.313 33.917 277.213 41.87 C 324.032 52.825 345.921 64.683 363.633 92.923 C 372.719 110.794 380.24 123.991 380.949 139.067 C 382.959 181.813 343.851 224.35 322.748 258.298 C 283.361 318.642 263.747 350.081 245.696 382.495 C 239.592 393.455 231.316 418.661 219.352 425.546 C 208.44 431.825 213.259 424.353 199.275 429.071 C 118.43 409.028 50.455 398.342 -4.43 357.89 L -6.51 354.811 C -11.046 339.121 -4.958 325.47 4.321 313.133" style="fill: none;"/>
    <path id="path-2" d="M 5.886 332.446 C 5.886 327.721 5.886 325.501 5.886 323.282 C 5.886 320.4 6.886 318.452 7.948 316.554 L 8.206 316.21 C 9.078 315.044 10.102 314.138 11.127 313.107" style="fill: none;"/>
    <path id="path-3" d="M 17.864 351.621 C 18.01 347.765 19.51 345.429 19.859 343.762 C 20.386 340.67 20.879 338.78 21.239 336.869 C 21.79 335.802 22.442 332.153 22.899 331.189 C 24.138 327.923 25.796 325.904 27.506 323.901 C 29.599 321.794 31.053 320.501 31.665 318.194 C 32.985 315.656 33.071 313.215 34.191 311.229 C 35.528 308.975 36.84 307.298 37.825 305.525 C 39.49 303.414 40.908 301.667 42.445 300.119 C 44.54 298.409 46.291 296.853 47.799 295.235 C 49.154 293.339 49.879 291.258 50.789 289.739 C 53.524 286.578 56.298 285.26 59.035 284.072 C 62.351 283.522 64.927 281.922 67.67 281.056 C 70.835 280.762 73.649 280.794 76.482 280.794 C 80.456 281.183 83.446 282.091 86.464 283.016 C 89.454 283.869 91.551 284.632 93.653 285.428 C 96.143 286.605 97.825 287.581 99.253 289.021 C 100.983 290.624 102.513 291.971 104.178 293.124 C 107.258 294.417 108.936 295.055 111.025 296.373 C 112.993 298.724 114.864 300.606 116.729 302.599 C 118.885 304.811 120.107 306.578 121.611 308.082 C 124.184 311.347 125.638 315.096 127.907 318.146 C 129.688 320.451 130.374 322.01 130.901 324.27 C 131.555 327.038 132.46 329.22 133.713 331.119 C 134.862 333.158 135.665 334.839 136.379 336.503 C 137.369 339.323 139.764 341.213 141.341 342.789 C 143.045 344.829 143.816 345.891 144.461 347.731 C 145.875 352.097 147.632 354.49 150.48 357.533 C 153.45 359.937 155.141 361.264 156.056 363.745 C 156.282 366.58 156.48 369.176 158.087 370.783 C 160.446 373.166 162.29 374.914 164.016 376.8 C 165.811 379.917 166.51 383.127 167.843 386.008 C 169.692 388.653 173.083 389.934 175.158 391.758 C 177.125 393.454 178.448 395.026 179.869 396.448 C 181.761 398.457 183.663 398.648 185.933 399.163 C 189.244 400.24 190.753 400.539 193.059 402.455 C 195.058 404.818 196.917 406.384 198.469 408.244 C 200.21 409.985 202.147 411.013 203.892 411.927 C 206.256 412.896 208.101 414.232 209.819 415.261 C 212.239 416.688 213.969 418.125 215.948 419.136 C 218.961 420.219 221.418 420.319 223.758 420.975 C 226.543 421.786 228.76 421.946 231.044 422.12 C 234.104 422.864 236.733 422.705 239.446 422.705 C 242.825 422.705 245.237 422.358 247.537 422.358 C 251.12 421.071 254.292 420.481 257.257 419.352 C 260.174 418.315 261.448 417.546 263.208 415.526 C 265.151 413.538 266.292 412.32 267.585 410.654 C 268.919 407.891 269.427 405.386 270.264 403.011 C 271.273 400.757 272.912 399.07 274.025 397.372 C 275.352 395.15 275.592 392.967 276.4 390.957 C 277.837 387.731 278.733 385.679 280.449 383.586 C 282.611 382.177 283.477 380.285 284.61 378.54 C 285.675 376.021 287.314 374.354 288.686 372.598 C 292.596 367.419 293.801 362.409 295.22 357.247 C 297.549 347.939 299.016 341.154 301.562 334.717 C 303.239 329.157 303.942 324.62 305.064 320.126 C 306.419 312.892 308.917 306.609 310.508 300.434 C 314.253 283.183 314.441 270.225 314.441 256.818 C 314.441 243.713 317.149 231.734 319.267 220.441 C 321.113 211.822 321.761 205.133 322.368 198.43 C 323.969 178.72 325.323 162.818 327.761 146.856 C 329.39 132.262 328.338 120.166 330.876 107.958 C 334.879 93.982 337.361 83.814 340.521 73.818 C 342.488 68.74 344.729 65.487 346.305 61.898 C 351.348 54.067 357.225 49.01 364.194 44.524 C 368.659 41.589 370.652 38.856 373.127 35.697 C 379.424 29.313 385.369 26.52 391.739 23.508 C 403.021 18.919 410.142 18.626 419.257 18.626 C 425.914 18.755 428.907 21.666 432.427 21.666 L 433.152 21.666 C 435.359 21.666 437.566 21.666 439.773 21.666" style="fill: none;"/>
  </defs>
  <text style="fill: rgb(51, 51, 51); font-family: Arial, sans-serif; font-size: 28px; white-space: pre;"><textPath xlink:href="#path-3"><tspan style="font-size: 16px;">I</tspan><tspan style="font-size: 17px;">nstead </tspan><tspan style="font-size: 18px;">of gro</tspan><tspan style="font-size: 17px;">win</tspan><tspan style="font-size: 18px;">g f</tspan><tspan style="font-size: 19px;">r</tspan><tspan style="font-size: 18px;">o</tspan><tspan style="font-size: 17px;">m </tspan><tspan style="font-size: 18px;">here, go ba</tspan><tspan style="font-size: 17px;">ck to </tspan><tspan style="font-size: 18px;">the r</tspan><tspan style="font-size: 17px;">oot</tspan><tspan style="font-size: 18px;"> </tspan><tspan style="font-size: 17px;">a</tspan><tspan style="font-size: 18px;">n</tspan><tspan style="font-size: 21px;">d </tspan><tspan style="font-size: 22px;">gr</tspan><tspan style="font-size: 21px;">o</tspan><tspan style="font-size: 23px;">w </tspan><tspan style="font-size: 24px;">f</tspan><tspan style="font-size: 26px;">r</tspan><tspan>o</tspan><tspan style="font-size: 30px;">m </tspan><tspan>a st</tspan><tspan style="font-size: 31px;">r</tspan><tspan style="font-size: 32px;">on</tspan><tspan style="font-size: 33px;">ger </tspan><tspan style="font-size: 32px;">f</tspan><tspan style="font-size: 26px;">ou</tspan><tspan style="font-size: 25px;">n</tspan><tspan style="font-size: 24px;">dati</tspan><tspan style="font-size: 25px;">on.</tspan></textPath></text>
  <polyline style="stroke: rgb(0, 0, 0); fill: none;" points="264.647 496.365 264.375 479.811 78.955 429.275 69.199 313.623"/>
  <polyline style="stroke: rgb(0, 0, 0); fill: none;" points="265.096 480.146 406.299 438.022 439.96 43.529"/>
  <line style="fill: rgb(216, 216, 216); stroke: rgb(0, 0, 0);" x1="75.536" y1="383.516" x2="42.767" y2="352.78"/>
  <line style="fill: rgb(216, 216, 216); stroke: rgb(0, 0, 0);" x1="73.338" y1="352.562" x2="96.761" y2="330.216"/>
  <line style="fill: rgb(216, 216, 216); stroke: rgb(0, 0, 0);" x1="70.948" y1="331.859" x2="49.675" y2="314.596"/>
  <line style="fill: rgb(216, 216, 216); stroke: rgb(0, 0, 0);" x1="90.344" y1="337.209" x2="105.554" y2="341.079"/>
  <line style="fill: rgb(216, 216, 216); stroke: rgb(0, 0, 0);" x1="433.657" y1="128.79" x2="396.89" y2="61.809"/>
  <line style="fill: rgb(216, 216, 216); stroke: rgb(0, 0, 0);" x1="430.736" y1="160.074" x2="482.766" y2="80.68"/>
  <line style="fill: rgb(216, 216, 216); stroke: rgb(0, 0, 0);" x1="437.757" y1="76.179" x2="477.89" y2="28.205"/>
  <line style="fill: rgb(216, 216, 216); stroke: rgb(0, 0, 0);" x1="427.902" y1="198.535" x2="373.328" y2="122.545"/>
  <line style="fill: rgb(216, 216, 216); stroke: rgb(0, 0, 0);" x1="423.719" y1="247.787" x2="490.035" y2="176.288"/>
  <line style="fill: rgb(216, 216, 216); stroke: rgb(0, 0, 0);" x1="417.894" y1="314.921" x2="354.561" y2="209.603"/>
  <line style="fill: rgb(216, 216, 216); stroke: rgb(0, 0, 0);" x1="413.526" y1="365.887" x2="481.638" y2="298.738"/>
  <line style="fill: rgb(216, 216, 216); stroke: rgb(0, 0, 0);" x1="409.639" y1="408.727" x2="357.174" y2="335.925"/>
  <line style="fill: rgb(216, 216, 216); stroke: rgb(0, 0, 0);" x1="407.766" y1="428.188" x2="483.215" y2="365.496"/>
</svg>